{"title":"Double Di Trouble (2014) - 2CD - DVDSCR-Rip - Punjabi - Xvid - A","uid":10942000,"size":1474649669,"categoryP":"video","categoryS":"movies","magnet":"?xt=urn:btih:370522863dee3306971954300afce290307568a3&amp;dn=Double+Di+Trouble+%282014%29+-+2CD+-+DVDSCR-Rip+-+Punjabi+-+Xvid+-+A&amp;tr=udp%3A%2F%2Ftracker.openbittorrent.com%3A80&amp;tr=udp%3A%2F%2Fopen.demonii.com%3A1337&amp;tr=udp%3A%2F%2Ftracker.coppersurfer.tk%3A6969&amp;tr=udp%3A%2F%2Fexodus.desync.com%3A6969","seeders":3,"leechers":1,"uploader":"inovai","files":4,"time":1409550260,"description":"Double Di Trouble (2014) - 2CD - DVDSCR-Rip - Punjabi - Xvid - AC3 - TeamTNT  \n\nCover:\n &lt;a href=&quot;\nhttp://forum.primetimeshow.in/viewtopic.php?f=7&amp;t=622&quot; rel=&quot;nofollow&quot; target=&quot;_NEW&quot;&gt;\nhttp://forum.primetimeshow.in/viewtopic.php?f=7&amp;t=622&lt;/a&gt;\n\nScreenshots:\n &lt;a href=&quot;\nhttp://img.primetimeshow.in/share.php?id=0896_540307BE&quot; rel=&quot;nofollow&quot; target=&quot;_NEW&quot;&gt;\nhttp://img.primetimeshow.in/share.php?id=0896_540307BE&lt;/a&gt;\n &lt;a href=&quot;\nhttp://img.primetimeshow.in/share.php?id=0725_540307BE&quot; rel=&quot;nofollow&quot; target=&quot;_NEW&quot;&gt;\nhttp://img.primetimeshow.in/share.php?id=0725_540307BE&lt;/a&gt;\n &lt;a href=&quot;\nhttp://img.primetimeshow.in/share.php?id=2052_540307BE&quot; rel=&quot;nofollow&quot; target=&quot;_NEW&quot;&gt;\nhttp://img.primetimeshow.in/share.php?id=2052_540307BE&lt;/a&gt;\n &lt;a href=&quot;\nhttp://img.primetimeshow.in/share.php?id=A753_540307BE&quot; rel=&quot;nofollow&quot; target=&quot;_NEW&quot;&gt;\nhttp://img.primetimeshow.in/share.php?id=A753_540307BE&lt;/a&gt;\n &lt;a href=&quot;\nhttp://img.primetimeshow.in/share.php?id=9C87_540307BE&quot; rel=&quot;nofollow&quot; target=&quot;_NEW&quot;&gt;\nhttp://img.primetimeshow.in/share.php?id=9C87_540307BE&lt;/a&gt;\n\n\nGeneral Info:\nGeneral\nComplete name : D:\\Double Di Trouble.avi\nFormat : AVI\nFormat/Info : Audio Video Interleave\nFile size : 1.36 GiB\nDuration : 1h 49mn\nOverall bit rate : 1 777 Kbps\n\nVideo\nID : 0\nFormat : MPEG-4 Visual\nFormat profile : Advanced Simple@L5\nFormat settings, BVOP : 2\nFormat settings, QPel : No\nFormat settings, GMC : No warppoints\nFormat settings, Matrix : Default (H.263)\nCodec ID : XVID\nCodec ID/Hint : XviD\nDuration : 1h 49mn\nBit rate : 1 576 Kbps\nWidth : 720 pixels\nHeight : 304 pixels\nDisplay aspect ratio : 2.35:1\nFrame rate : 29.970 fps\nColor space : YUV\nChroma subsampling : 4:2:0\nBit depth : 8 bits\nScan type : Progressive\nCompression mode : Lossy\nBits/(Pixel*Frame) : 0.240\nStream size : 1.21 GiB (89%)\nWriting library : XviD 1.2.1 (UTC 2008-12-04)\n\nAudio\nID : 1\nFormat : AC-3\nFormat/Info : Audio Coding 3\nMode extension : CM (complete main)\nFormat settings, Endianness : Big\nCodec ID : 2000\nDuration : 1h 49mn\nBit rate mode : Constant\nBit rate : 192 Kbps\nChannel(s) : 2 channels\nChannel positions : Front: L R\nSampling rate : 48.0 KHz\nBit depth : 16 bits\nCompression mode : Lossy\nStream size : 151 MiB (11%)\nAlignment : Aligned on interleaves\nInterleave, duration : 64 ms (1.92 video frames)\nInterleave, preload duration : 192 ms\nTitle : VTS_01_1 T01 2_0ch 192Kbps DELAY 0ms\n\nThanks to mafiaking n TeamTNT!!!","torrent":{"xt":"urn:btih:370522863dee3306971954300afce290307568a3","amp;dn":"Double+Di+Trouble+%282014%29+-+2CD+-+DVDSCR-Rip+-+Punjabi+-+Xvid+-+A","amp;tr":["udp%3A%2F%2Ftracker.openbittorrent.com%3A80","udp%3A%2F%2Fopen.demonii.com%3A1337","udp%3A%2F%2Ftracker.coppersurfer.tk%3A6969","udp%3A%2F%2Fexodus.desync.com%3A6969"],"infoHash":"370522863dee3306971954300afce290307568a3","infoHashBuffer":{"type":"Buffer","data":[55,5,34,134,61,238,51,6,151,25,84,48,10,252,226,144,48,117,104,163]},"announce":[],"urlList":[]}}